<svg width="24" height="24" viewBox="0 0 24 24" fill="none" xmlns="http://www.w3.org/2000/svg">
<path d="M14.1504 19C14.1504 18.2676 13.7049 17.5012 12.7715 16.8789C11.8437 16.2605 10.5127 15.8496 9 15.8496C7.48731 15.8496 6.15631 16.2605 5.22852 16.8789C4.29508 17.5012 3.84961 18.2676 3.84961 19C3.84961 19.4694 3.46944 19.8496 3 19.8496C2.53056 19.8496 2.15039 19.4694 2.15039 19C2.15039 17.5225 3.04828 16.289 4.28613 15.4639C5.52981 14.6349 7.19883 14.1504 9 14.1504C10.8012 14.1504 12.4702 14.6349 13.7139 15.4639C14.9517 16.289 15.8496 17.5225 15.8496 19C15.8496 19.4694 15.4694 19.8496 15 19.8496C14.5306 19.8496 14.1504 19.4694 14.1504 19ZM18.1504 16V13.8496H16C15.5306 13.8496 15.1504 13.4694 15.1504 13C15.1504 12.5306 15.5306 12.1504 16 12.1504H18.1504V10C18.1504 9.53056 18.5306 9.15039 19 9.15039C19.4694 9.15039 19.8496 9.53056 19.8496 10V12.1504H22C22.4694 12.1504 22.8496 12.5306 22.8496 13C22.8496 13.4694 22.4694 13.8496 22 13.8496H19.8496V16C19.8496 16.4694 19.4694 16.8496 19 16.8496C18.5306 16.8496 18.1504 16.4694 18.1504 16ZM12.1504 8C12.1504 7.16457 11.8183 6.3632 11.2275 5.77246C10.6368 5.18172 9.83543 4.84961 9 4.84961C8.16457 4.84961 7.3632 5.18172 6.77246 5.77246C6.18172 6.3632 5.84961 7.16457 5.84961 8C5.84961 8.83543 6.18172 9.6368 6.77246 10.2275C7.3632 10.8183 8.16457 11.1504 9 11.1504C9.83543 11.1504 10.6368 10.8183 11.2275 10.2275C11.8183 9.6368 12.1504 8.83543 12.1504 8ZM13.8496 8C13.8496 9.2863 13.3392 10.5201 12.4297 11.4297C11.5201 12.3392 10.2863 12.8496 9 12.8496C7.7137 12.8496 6.47986 12.3392 5.57031 11.4297C4.66076 10.5201 4.15039 9.2863 4.15039 8C4.15039 6.7137 4.66076 5.47986 5.57031 4.57031C6.47986 3.66076 7.7137 3.15039 9 3.15039C10.2863 3.15039 11.5201 3.66076 12.4297 4.57031C13.3392 5.47986 13.8496 6.7137 13.8496 8Z" fill="#1A1A1A"/>
</svg>
